<?xml version="1.0" encoding="utf-8"?>
<!-- Generator: Adobe Illustrator 17.1.0, SVG Export Plug-In . SVG Version: 6.00 Build 0)  -->
<!DOCTYPE svg PUBLIC "-//W3C//DTD SVG 1.1//EN" "http://www.w3.org/Graphics/SVG/1.1/DTD/svg11.dtd">
<svg version="1.1" id="Layer_1" xmlns="http://www.w3.org/2000/svg" xmlns:xlink="http://www.w3.org/1999/xlink" x="0px" y="0px"
	 viewBox="0 0 460 180" enable-background="new 0 0 460 180" xml:space="preserve">
<rect y="-0.2" fill="#161616" width="460" height="180"/>
<g opacity="0.3">
	<linearGradient id="SVGID_1_" gradientUnits="userSpaceOnUse" x1="230" y1="159.8333" x2="230" y2="19.8333">
		<stop  offset="0" style="stop-color:#008A30"/>
		<stop  offset="6.236616e-002" style="stop-color:#009032"/>
		<stop  offset="0.3324" style="stop-color:#00A839"/>
		<stop  offset="0.5" style="stop-color:#00B13B"/>
		<stop  offset="0.7249" style="stop-color:#00A237"/>
		<stop  offset="1" style="stop-color:#008A30"/>
	</linearGradient>
	<path fill="url(#SVGID_1_)" d="M430,29.8v120H30v-120H430 M440,19.8H20v140h420V19.8L440,19.8z"/>
</g>
<g opacity="0.3">
	<linearGradient id="SVGID_2_" gradientUnits="userSpaceOnUse" x1="230" y1="159.8333" x2="230" y2="19.8333">
		<stop  offset="0" style="stop-color:#008A30"/>
		<stop  offset="6.236616e-002" style="stop-color:#009032"/>
		<stop  offset="0.3324" style="stop-color:#00A839"/>
		<stop  offset="0.5" style="stop-color:#00B13B"/>
		<stop  offset="0.7249" style="stop-color:#00A237"/>
		<stop  offset="1" style="stop-color:#008A30"/>
	</linearGradient>
	<path fill="url(#SVGID_2_)" d="M420,39.8v100H40v-100H420 M440,19.8H20v140h420V19.8L440,19.8z"/>
</g>
<g opacity="0.3">
	<linearGradient id="SVGID_3_" gradientUnits="userSpaceOnUse" x1="230" y1="159.8333" x2="230" y2="19.8333">
		<stop  offset="0" style="stop-color:#008A30"/>
		<stop  offset="6.236616e-002" style="stop-color:#009032"/>
		<stop  offset="0.3324" style="stop-color:#00A839"/>
		<stop  offset="0.5" style="stop-color:#00B13B"/>
		<stop  offset="0.7249" style="stop-color:#00A237"/>
		<stop  offset="1" style="stop-color:#008A30"/>
	</linearGradient>
	<path fill="url(#SVGID_3_)" d="M410,49.8v80H50v-80H410 M440,19.8H20v140h420V19.8L440,19.8z"/>
</g>
<g>
	<path fill="#EEEEEE" d="M49.7,90.1c0-12.5,2.2-22.5,6.7-30.1c4.5-7.6,10.7-11.4,18.9-11.4c3,0,5.7,0.7,8.1,2.2
		c2.4,1.5,4.6,3.6,6.5,6.3V14.9H110v115.4H92.5l-1.4-9.7c-2,3.3-4.3,5.9-6.9,7.6c-2.6,1.7-5.6,2.6-9,2.6c-8.1,0-14.4-3.6-18.8-10.7
		c-4.4-7.2-6.7-16.7-6.7-28.5V90.1z M69.9,91.7c0,7.1,0.8,12.7,2.4,16.6c1.6,4,4.3,6,8.1,6c2.1,0,3.9-0.5,5.5-1.5
		c1.6-1,2.9-2.5,4-4.4V72.2c-1.1-2.2-2.4-3.9-4-5.1c-1.6-1.2-3.3-1.8-5.3-1.8c-3.7,0-6.5,2.3-8.1,6.8c-1.7,4.6-2.5,10.6-2.5,18.1
		V91.7z"/>
	<path fill="#EEEEEE" d="M146.5,130.9c-9.7,0-17.4-3.3-23.1-9.8c-5.7-6.6-8.5-14.8-8.5-24.8V85.1c0-10.7,2.6-19.5,7.9-26.3
		c5.3-6.8,12.6-10.3,22-10.3c9,0,16,3.1,20.9,9.3c4.9,6.2,7.4,14.7,7.4,25.4V96H135v0.3c0,5.2,1.1,9.5,3.5,12.9
		c2.3,3.4,5.8,5.1,10.4,5.1c3.8,0,6.9-0.4,9.3-1.3c2.4-0.9,5.2-2.3,8.5-4.4l5.1,13.3c-2.7,2.6-6.2,4.8-10.6,6.5
		C156.7,130,151.8,130.9,146.5,130.9z M144.8,65.2c-3.2,0-5.6,1.5-7.1,4.6c-1.5,3-2.4,7.1-2.6,12.3h18.2v-2.9c0-4.4-0.7-7.8-2-10.3
		C149.9,66.4,147.7,65.2,144.8,65.2z"/>
	<path fill="#EEEEEE" d="M239.7,95.8c0,10.6-2.2,19.1-6.7,25.5c-4.5,6.4-10.7,9.6-18.7,9.6c-3.1,0-5.9-0.6-8.4-1.9
		c-2.4-1.3-4.6-3.2-6.4-5.8v39.7h-20.2V50h18.7l0.7,7.8c1.9-3,4-5.3,6.6-6.9c2.5-1.6,5.5-2.4,8.8-2.4c8.1,0,14.4,3.4,18.9,10.3
		c4.5,6.9,6.7,15.9,6.7,27.2V95.8z M219.5,86c0-6.3-0.9-11.3-2.6-15.1c-1.7-3.8-4.4-5.7-8-5.7c-2.1,0-4,0.6-5.6,1.7
		c-1.6,1.1-2.8,2.7-3.8,4.7V109c0.9,1.8,2.2,3.1,3.7,4c1.5,0.9,3.4,1.3,5.7,1.3c3.7,0,6.4-1.6,8.1-4.9c1.6-3.3,2.5-7.8,2.5-13.6V86z
		"/>
	<path fill="#EEEEEE" d="M270,37.3V50h10.7v15.1H270v39.8c0,3.2,0.5,5.5,1.4,6.9c0.9,1.4,2.1,2.1,3.7,2.1c1.2,0,2.3-0.1,3.1-0.2
		c0.9-0.1,1.8-0.3,2.8-0.6l1.6,15.8c-2.1,0.7-4.2,1.2-6.1,1.5c-1.9,0.3-4.2,0.4-6.6,0.4c-6.5,0-11.5-2.1-14.9-6.2
		c-3.4-4.1-5.2-10.7-5.2-19.7V65.1h-9.1V50h9.1V37.3H270z"/>
	<path fill="#EEEEEE" d="M308.8,59.5c2-3.5,4.4-6.2,7.2-8.1c2.8-1.9,5.9-2.9,9.3-2.9c6.8,0,12.2,2.8,16.1,8.4
		c3.9,5.6,5.8,14.2,5.8,25.9v47h-20.3V82.7c0-6.6-0.7-11.1-2.2-13.7c-1.5-2.5-3.8-3.8-7-3.8c-1.9,0-3.6,0.4-5.1,1.3
		c-1.5,0.9-2.7,2-3.8,3.6v59.8h-20.2V14.9h20.2V59.5z"/>
	<path fill="#EEEEEE" d="M379,96.8l0.1,0.8L390.4,50h21.6l-32,112.1h-19.3l10-32.1l-22.7-80h21.7L379,96.8z"/>
</g>
<g>
	<path fill="#EEEEEE" d="M440,19.8v140H20v-140H440 M460-0.2H0v180h460V-0.2L460-0.2z"/>
</g>
</svg>
