<?xml version="1.0" encoding="utf-8"?>
<!-- Generator: Adobe Illustrator 17.1.0, SVG Export Plug-In . SVG Version: 6.00 Build 0)  -->
<!DOCTYPE svg PUBLIC "-//W3C//DTD SVG 1.1//EN" "http://www.w3.org/Graphics/SVG/1.1/DTD/svg11.dtd">
<svg version="1.1" id="Layer_1" xmlns="http://www.w3.org/2000/svg" xmlns:xlink="http://www.w3.org/1999/xlink" x="0px" y="0px"
	 viewBox="28.8 178.8 440.5 139.8" enable-background="new 28.8 178.8 440.5 139.8" xml:space="preserve">
<rect x="-4" y="365" display="none" fill="#161616" width="568.8" height="222.6"/>
<g>
	<path fill="#E5E5E4" d="M134.8,249.2c0,4.3-0.7,8.2-2,11.7s-3.3,6.5-5.8,9.1c-2.5,2.5-5.5,4.5-8.9,5.8c-3.5,1.4-7.3,2.1-11.5,2.1
		H85v-57.5h21.5c4.2,0,8.1,0.7,11.5,2.1c3.5,1.4,6.5,3.3,8.9,5.9s4.4,5.6,5.8,9.1S134.8,244.9,134.8,249.2z M126.8,249.2
		c0-3.5-0.5-6.7-1.4-9.5c-1-2.8-2.3-5.1-4.1-7.1s-3.9-3.4-6.4-4.4c-2.5-1-5.3-1.5-8.4-1.5H92.8v44.9h13.7c3.1,0,5.9-0.5,8.4-1.5
		c2.5-1,4.7-2.5,6.4-4.4s3.1-4.3,4.1-7S126.8,252.7,126.8,249.2z"/>
	<path fill="#E5E5E4" d="M185.5,220.4v6.3h-27.6v19.1h22.3v6.1h-22.3v19.6h27.6v6.3h-35.4v-57.5H185.5z"/>
	<path fill="#E5E5E4" d="M210,256.4v21.5h-7.7v-57.5h17c3.6,0,6.8,0.4,9.5,1.3c2.7,0.8,4.9,2,6.7,3.6c1.8,1.6,3.1,3.4,3.9,5.6
		c0.9,2.2,1.3,4.6,1.3,7.3c0,2.7-0.5,5.1-1.4,7.3c-0.9,2.2-2.3,4.1-4.1,5.7c-1.8,1.6-4,2.9-6.7,3.7c-2.7,0.9-5.7,1.3-9.2,1.3H210z
		 M210,250.2h9.2c2.2,0,4.2-0.3,5.9-0.9c1.7-0.6,3.1-1.4,4.3-2.5c1.1-1.1,2-2.3,2.6-3.8c0.6-1.5,0.9-3.1,0.9-4.9
		c0-3.7-1.1-6.5-3.4-8.6c-2.3-2.1-5.7-3.1-10.2-3.1H210V250.2z"/>
	<path fill="#E5E5E4" d="M294.3,220.4v6.5h-18.6v50.9h-7.8V227h-18.6v-6.5H294.3z"/>
	<path fill="#E5E5E4" d="M353.8,277.9H346v-26.1h-31v26.1h-7.8v-57.5h7.8V246h31v-25.6h7.8V277.9z"/>
	<path fill="#E5E5E4" d="M394.7,255v22.9h-7.7V255l-21.1-34.6h6.8c0.7,0,1.2,0.2,1.6,0.5c0.4,0.3,0.7,0.8,1,1.3l13.2,22.3
		c0.5,0.9,1,1.8,1.3,2.6c0.4,0.8,0.7,1.6,1,2.4c0.3-0.8,0.6-1.7,1-2.5c0.3-0.8,0.8-1.7,1.3-2.6l13.1-22.3c0.2-0.4,0.6-0.8,1-1.2
		c0.4-0.4,1-0.6,1.6-0.6h6.9L394.7,255z"/>
</g>
<path fill="#E5E5E4" d="M444,204v90H54v-90H444 M449,199H49v100h400V199L449,199z"/>
<path fill="#E6E7E8" d="M444.5,183.8V199v5h5h14.8v109.7H33.8V183.8H444.5 M449.5,178.8H28.8v139.8h440.5V199h-19.8V178.8
	L449.5,178.8z"/>
</svg>
