<?xml version="1.0" encoding="utf-8"?>
<!-- Generator: Adobe Illustrator 17.1.0, SVG Export Plug-In . SVG Version: 6.00 Build 0)  -->
<!DOCTYPE svg PUBLIC "-//W3C//DTD SVG 1.1//EN" "http://www.w3.org/Graphics/SVG/1.1/DTD/svg11.dtd">
<svg version="1.1" id="Layer_1" xmlns="http://www.w3.org/2000/svg" xmlns:xlink="http://www.w3.org/1999/xlink" x="0px" y="0px"
	 viewBox="29.3 23.8 439.5 139.8" enable-background="new 29.3 23.8 439.5 139.8" xml:space="preserve">
<rect y="173.9" display="none" fill="#161616" width="500" height="195.7"/>
<g>
	<path fill="#E5E5E4" d="M130.8,94.1c0,4.5-0.7,8.5-2.1,12.2c-1.4,3.7-3.4,6.8-6,9.4c-2.6,2.6-5.7,4.6-9.3,6
		c-3.6,1.4-7.6,2.1-12,2.1H79.2V64.4h22.2c4.4,0,8.4,0.7,12,2.1c3.6,1.4,6.7,3.4,9.3,6.1c2.6,2.6,4.6,5.7,6,9.4
		S130.8,89.7,130.8,94.1z M122.5,94.1c0-3.7-0.5-6.9-1.5-9.8c-1-2.9-2.4-5.3-4.2-7.3c-1.8-2-4-3.5-6.6-4.6c-2.6-1.1-5.5-1.6-8.7-1.6
		H87.3v46.4h14.2c3.2,0,6.1-0.5,8.7-1.6c2.6-1.1,4.8-2.6,6.6-4.5c1.8-2,3.2-4.4,4.2-7.3C122,101,122.5,97.8,122.5,94.1z"/>
	<path fill="#E5E5E4" d="M183.3,64.4v6.6h-28.6v19.8h23.1V97h-23.1v20.3h28.6v6.6h-36.6V64.4H183.3z"/>
	<path fill="#E5E5E4" d="M208.6,101.6v22.2h-8V64.4h17.6c3.8,0,7,0.4,9.8,1.3c2.8,0.9,5.1,2.1,6.9,3.7c1.8,1.6,3.2,3.5,4.1,5.8
		c0.9,2.3,1.3,4.8,1.3,7.6c0,2.8-0.5,5.3-1.5,7.6c-1,2.3-2.4,4.3-4.3,5.9c-1.9,1.7-4.2,3-7,3.9c-2.8,0.9-5.9,1.4-9.5,1.4H208.6z
		 M208.6,95.2h9.5c2.3,0,4.3-0.3,6.1-0.9c1.8-0.6,3.2-1.5,4.4-2.6c1.2-1.1,2.1-2.4,2.7-3.9c0.6-1.5,0.9-3.2,0.9-5
		c0-3.8-1.2-6.8-3.5-8.9c-2.3-2.1-5.9-3.2-10.6-3.2h-9.5V95.2z"/>
	<path fill="#E5E5E4" d="M295.8,64.4v6.8h-19.2v52.7h-8.1V71.1h-19.3v-6.8H295.8z"/>
	<path fill="#E5E5E4" d="M357.4,123.8h-8.1V96.8h-32v27.1h-8.1V64.4h8.1v26.5h32V64.4h8.1V123.8z"/>
	<path fill="#E5E5E4" d="M399.8,100.2v23.7h-8v-23.7L370,64.4h7.1c0.7,0,1.3,0.2,1.7,0.5c0.4,0.4,0.8,0.8,1.1,1.3l13.6,23.1
		c0.6,1,1,1.9,1.4,2.7c0.4,0.9,0.7,1.7,1,2.5c0.3-0.9,0.6-1.7,1-2.6c0.4-0.9,0.8-1.8,1.4-2.7l13.6-23.1c0.2-0.4,0.6-0.9,1-1.3
		c0.4-0.4,1-0.6,1.7-0.6h7.1L399.8,100.2z"/>
</g>
<g>
	<path fill="#E5E5E4" d="M444,49v90H54V49H444 M449,44H49v100h400V44L449,44z"/>
</g>
<g>
	<path fill="#E6E7E8" d="M463.8,28.8v129.8H34.3V49H49h5v-5V28.8H463.8 M468.8,23.8H49V44H29.3v119.7h439.5V23.8L468.8,23.8z"/>
</g>
</svg>
