<?xml version="1.0" encoding="utf-8"?>
<!-- Generator: Adobe Illustrator 17.1.0, SVG Export Plug-In . SVG Version: 6.00 Build 0)  -->
<!DOCTYPE svg PUBLIC "-//W3C//DTD SVG 1.1//EN" "http://www.w3.org/Graphics/SVG/1.1/DTD/svg11.dtd">
<svg version="1.1" id="Layer_1" xmlns="http://www.w3.org/2000/svg" xmlns:xlink="http://www.w3.org/1999/xlink" x="0px" y="0px"
	 viewBox="0 0 440 160" enable-background="new 0 0 440 160" xml:space="preserve">
<text transform="matrix(0.9704 0 0 1 35.8335 119.5234)" display="none"><tspan x="0" y="0" display="inline" font-family="'RobotoCondensed-Bold'" font-size="150.2142" letter-spacing="-6.2">d</tspan><tspan x="66.1" y="0" display="inline" font-family="'RobotoCondensed-Bold'" font-size="150.2142" letter-spacing="-3.1">e</tspan><tspan x="130.8" y="0" display="inline" font-family="'RobotoCondensed-Bold'" font-size="150.2142" letter-spacing="-4.1">p</tspan><tspan x="199.4" y="0" display="inline" font-family="'RobotoCondensed-Bold'" font-size="150.2142" letter-spacing="-2.1">t</tspan><tspan x="244" y="0" display="inline" font-family="'RobotoCondensed-Bold'" font-size="150.2142" letter-spacing="-5.2">hy</tspan></text>
<g>
	<g>
		<path fill="#EEEEEE" d="M134.8,38.7c-9.3,0-16.7,3.4-22,10.3c-5.3,6.8-7.9,15.6-7.9,26.3v11.1c0,10,2.8,18.2,8.5,24.8
			c5.7,6.6,13.4,9.8,23.1,9.8c5.3,0,10.2-0.9,14.6-2.6c4.4-1.7,8-3.9,10.6-6.5l-5.1-13.3c-3.3,2.1-6.1,3.5-8.5,4.4
			c-2.4,0.9-5.5,1.3-9.3,1.3c-4.7,0-8.1-1.7-10.4-5.1c-2.3-3.4-3.5-7.7-3.5-12.9v-0.3h38.1V73.4c0-10.7-2.5-19.2-7.4-25.4
			C150.7,41.8,143.8,38.7,134.8,38.7z M143.2,72.2h-18.2c0.2-5.2,1-9.3,2.6-12.3c1.5-3,3.9-4.6,7.1-4.6c3,0,5.1,1.2,6.5,3.6
			c1.3,2.4,2,5.9,2,10.3V72.2z"/>
	</g>
	<g>
		<path fill="#EEEEEE" d="M268.2,103.9c-0.9,0.1-1.9,0.2-3.1,0.2c-1.6,0-2.8-0.7-3.7-2.1c-0.9-1.4-1.3-3.7-1.3-6.9V55h11V40h-11V30
			h-20v10h-9v15h9v40.2c0,9,1.6,15.6,5,19.7c3.4,4.1,8.4,6.2,14.9,6.2c2.5,0,4.6-0.1,6.6-0.4c1.9-0.3,4-0.8,6.1-1.5l-1.6-15.8
			C270,103.6,269,103.8,268.2,103.9z"/>
	</g>
	<g>
		<path fill="#EEEEEE" d="M0,0.3V160h440V0.3H0z M420,140h-46.4l28.5-99.8h-21.6l-11.2,47.6L369,87l-9.3-46.8h-21.7l22.7,80
			l-6.2,19.8h-165v-26.6c1.8,2.5,3.9,4.5,6.4,5.8c2.4,1.3,5.2,1.9,8.4,1.9c8,0,14.3-3.2,18.7-9.6c4.5-6.4,6.7-14.9,6.7-25.5v-9.8
			c0-11.2-2.2-20.3-6.7-27.2c-4.5-6.9-10.7-10.3-18.9-10.3c-3.3,0-6.3,0.8-8.8,2.4c-2.5,1.6-4.7,3.9-6.6,6.9l-0.7-7.8h-18.7V140H20
			V20.3h59.8v26.9c-1.9-2.7-4.1-4.8-6.5-6.3c-2.4-1.5-5.1-2.2-8.1-2.2c-8.1,0-14.4,3.8-18.9,11.4c-4.5,7.6-6.7,17.7-6.7,30.1v1.5
			c0,11.8,2.2,21.3,6.7,28.5c4.4,7.2,10.7,10.7,18.8,10.7c3.4,0,6.4-0.9,9-2.6s4.9-4.3,6.9-7.6l1.4,9.7H100V20.3h178.5V120h20.2
			V60.2c1-1.5,2.3-2.7,3.8-3.6c1.5-0.9,3.2-1.3,5.1-1.3c3.2,0,5.5,1.3,7,3.8c1.5,2.5,2.2,7.1,2.2,13.7V120h20.3V73
			c0-11.7-1.9-20.3-5.8-25.9c-3.9-5.6-9.3-8.4-16.1-8.4c-3.4,0-6.5,1-9.3,2.9c-2.8,1.9-5.2,4.6-7.2,8.1V20.3H420V140z M189.5,99.1
			V61.7c0.9-2,2.2-3.6,3.8-4.7c1.6-1.1,3.4-1.7,5.6-1.7c3.7,0,6.3,1.9,8,5.7c1.7,3.8,2.6,8.8,2.6,15.1v9.8c0,5.8-0.8,10.3-2.5,13.6
			c-1.6,3.3-4.3,4.9-8.1,4.9c-2.2,0-4.1-0.4-5.7-1.3C191.7,102.2,190.5,100.9,189.5,99.1z M79.8,62.3v36.2c-1.1,1.9-2.4,3.4-4,4.4
			c-1.6,1-3.4,1.5-5.5,1.5c-3.8,0-6.5-2-8.1-6c-1.6-4-2.4-9.5-2.4-16.6v-1.5c0-7.5,0.8-13.5,2.5-18.1c1.7-4.6,4.4-6.8,8.1-6.8
			c2,0,3.8,0.6,5.3,1.8C77.4,58.4,78.7,60.1,79.8,62.3z"/>
	</g>
</g>
<g opacity="0.2">
	<path fill="#EEEEEE" d="M430,150H10V10h420V150z M30,130h380V30H30V130z"/>
</g>
<g opacity="0.2">
	<path fill="#EEEEEE" d="M420,140H20V20h400V140z M40,120h360V40H40V120z"/>
</g>
</svg>
